<?xml version="1.0" encoding="UTF-8"?>
<svg id="Oreja_izquierda" xmlns="http://www.w3.org/2000/svg" viewBox="0 0 339.93 341.84">
  <defs>
    <style>
      .cls-1 {
        stroke-width: .75px;
      }

      .cls-1, .cls-2, .cls-3, .cls-4 {
        fill: #1d1d1b;
      }

      .cls-1, .cls-3, .cls-5, .cls-4, .cls-6, .cls-7 {
        stroke: #1d1d1b;
        stroke-miterlimit: 10;
      }

      .cls-3 {
        stroke-width: .5px;
      }

      .cls-5 {
        stroke-width: 2px;
      }

      .cls-5, .cls-6 {
        fill: #fff;
      }

      .cls-4, .cls-6, .cls-7 {
        stroke-width: 4px;
      }

      .cls-7 {
        fill: #8cc3eb;
      }

      .cls-8 {
        fill: #e6332a;
      }
    </style>
  </defs>
  <path class="cls-7" d="M219.53,287.26s31.3,10.96,60.65-22.7c0,0,30.13-31.72,28.17-86.88,0,0-.76-23.07,7.41-37.61.2-.35-.02-.78-.42-.81-6.94-.61-55.04-2.53-76.89,59.69-.12.34-.18.69-.17,1.05.09,5.74.2,56.47-23.06,58.69,0,0,5.48,22.71,4.3,28.58Z"/>
  <path class="cls-7" d="M89.22,198.35s-17.48,18.39-40.96-5.48c0,0-2.15,22.5-19.96,23.67,0,0,26.54,28.37,60.91,23.28v-41.48Z"/>
  <path class="cls-7" d="M96.72,246.78s-1.43,42.26-2.61,44.48,25.57,6.26,25.57,6.26l7.17-28.04-30.13-22.7Z"/>
  <g>
    <path class="cls-7" d="M46.81,98.24c-1.78-5.53-18.1-58.99,5.66-95.57.3-.46.85-.67,1.38-.55,5.52,1.34,35.58,9.97,56.82,43.14.28.44.8.67,1.31.57,4.65-.89,27.97-4.66,53.32,4.16.52.18,1.1.02,1.43-.43,4.36-5.79,34.52-43.69,79.03-47.57.61-.05,1.17.33,1.34.92,2.08,7.16,13.15,51.83-15.81,105.93-.1.19-.15.4-.15.61.05,3.59.98,35.81,17.48,46.89,0,0,6.94,5.21-16.65,10.79-.94.22-1.32,1.36-.68,2.08.93,1.05,2.52,2.48,5.08,3.93.83.47.91,1.63.12,2.17-5.23,3.62-22.84,14.59-55.63,23.77-.65.18-1.05.82-.92,1.48,1.02,5.08,6.51,25.65,30.58,41.09,0,0,1.04.52,6.97,11.61.05.09.08.18.11.28.92,3.45,17.32,67.56-43.27,65.08-.05,0-.09,0-.13,0-1.08.09-16.64,1.16-16.64-10.05,0,0-1.14-3.62,1.54-6.63.63-.7.32-1.82-.59-2.07-11.05-3.15-58.31-18.83-65.64-57.88-.24-1.27-1.99-1.41-2.45-.2-.01.04-.03.07-.04.11-.42,1.13-2.03,1.11-2.41-.04-1.87-5.68-4.81-16.54-2.02-21.94.41-.79-.01-1.74-.89-1.88-1.82-.29-4.44-.81-6.22-1.65-.82-.38-1.01-1.46-.36-2.08,2.96-2.85,10.73-10.7,11.53-15.42.1-.61-.22-1.21-.8-1.43-6.76-2.57-51.96-20.25-62.35-38.29-.39-.67-.09-1.53.63-1.82,2.04-.83,5.97-2.49,8.35-3.91.99-.59.76-2.07-.35-2.34-3.82-.92-11.36-2.94-15.25-5.31-.74-.45-.79-1.51-.12-2.06,3.63-2.98,13.82-11.43,15.03-13.58.05-.08.07-.16.1-.25.43-1.52,4.47-15.6,11.49-30.71.14-.29.16-.62.06-.92Z"/>
    <path class="cls-6" d="M246.44,3.39c2.94,10.67,13.76,58.66-14.88,103.04-.04.07-.92,6.04-.17-.01.29-2.36-8.62-24.81-16.27-27.7-.05-.02-.08-.07-.05-.12.68-1.17,7.88-13.83,5.45-22.29-.01-.04-.04-.06-.08-.07-.78-.1-9.25-.99-16.41,4.78-.07.06-.17,0-.15-.09,1.04-3.72,12.92-44.45,39.86-58.7,1.07-.57,2.39,0,2.71,1.16Z"/>
    <path class="cls-2" d="M58.08,132.69s.29-15.65,18.95-18.39c0,0,20.48-.39,19.3,20.48,0,0-1.3,5.18-4.78-2.1,0,0-3.15-10.84-16.19-9.86,0,0-10.1,2.63-13.77,9.38,0,0-2.53,3.95-3.51.51Z"/>
    <path class="cls-6" d="M46.64,90.62c-.2-6.46-16.71-36.49,6.5-86.84,0,0,18.26,15.13,23.48,50.35,0,0-8.35-3.13-12-2.09,0,0-3.39,3.65,2.61,13.57,0,0-12.63,7.55-19.19,22.42l-1.4,2.59Z"/>
    <path class="cls-1" d="M146.98,139.38c.73-2.3,6.46-18.3,23.52-19.03,0,0,20.48,1.43,21.39,22.96,0,0-2.36,4.92-4.76-1.92,0,0-3.29-11.25-17.74-12.28,0,0-10.53.24-18.55,9.98,0,0-1.55,3.49-3.77.8-.11-.14-.15-.33-.1-.5Z"/>
    <path class="cls-5" d="M115.29,139.99s34.96,5.61,50.74,15.26c0,0,41.41,10.7,79.86,2.09.58-.13,1.08.41.9.99-.8,2.62-4.38,8.43-20.39,7.93,0,0,5.48,5.04,8.12,6.75,0,0-21.86,25.29-78.41,27.24,0,0,19.48-.54,21.23-.88,0,0-38.32,27.1-44.45,53.18,0,0-7.18,23.05-8.23,30.49,0,0-34.73-20.25-32.86-47.96,0,0-2.48,5.48-2.74,6.65,0,0-7.43-13.12-1.43-25.39,0,0-2.88-1.76-7.57-1.74,0,0,9.18-12.04,10.1-16.52.07-.36.39-.61.76-.62,1.43-.04,5.35.18,14.19,2.4,0,0-63.65-17.61-76.43-43.43,0,0,7.96-2.79,8.09-5.14,0,0-12.08-5.92-15.26-6.95,0,0,42.65,8.96,53.09,8.44,0,0,28.49-15.13,40.7-12.78Z"/>
    <path class="cls-3" d="M114.54,149.94s.13,6.85.62,7.83c0,0,4.04,4.27,10.04,3.65,0,0,7.47-.23,9.78-3.88,0,0,2.35-.2.91,2.77,0,0-2.56,2.41-3.37,2.71,0,0-2.24,1.04-2.47,3.95,0,0-4.24,8.8-10.04,9.78,0,0-8.02,2.05-11.93-5.74,0,0-2.58-5.22-1.99-7.7,0,0-6.85-.1-9.16-4.43,0,0-1.21-2.09,0-2.87,0,0,1.5-.65,3.13,1.37,0,0,3.52,2.84,7.08,2.05,0,0,4.14-.82,4.11-2.51,0,0,.2-6.82.1-7.4s3.15-1.08,3.2.42Z"/>
    <path class="cls-8" d="M113.12,160.04s7.92,5.41,14.32,4.47c0,0-2.61,8.38-9.29,9.23,0,0-9.29.98-9.29-10.86,0,0,2.93-.99,4.27-2.84Z"/>
    <path class="cls-1" d="M112.66,150.93s-11.4-6.02-5.97-13.26c0,0,3.28-3.72,12.47-.83s2.15,9.49,2.15,9.49c0,0-2.74,4.74-8.66,4.6Z"/>
  </g>
  <path class="cls-2" d="M123.84,287.12s-2.64,9.49-3.62,10.57c0,0-8.51,4.6-7.34,13.89,0,0,.88,11.05,14.58,9.78,0,0,19.17,2.15,23.77-17.9l2.84-12.03s-27-3.13-30.23-4.3Z"/>
  <path class="cls-2" d="M92.8,289.61s19.12-1.27,27.2,6.16c0,0,1.22,16.83-13.01,19.81,0,0-22.6,3.33-24.41-6.85,0,0-3.57-9.1,10.22-19.12Z"/>
  <path class="cls-2" d="M207.65,307.43s-16.09-21.91-40.74-15.7c0,0-9.93,5.77-9.93,18.59,0,0,.54,8.02,14.97,7.63,0,0,32.72-.2,35.71-10.52Z"/>
  <path class="cls-2" d="M123.46,288.29s7.86-41.76,12.65-44.6c0,0-.2,1.28-1.05,3.58,0,0-10.08,40.34-10.14,43.93,0,0-1.92-.41-1.46-2.91Z"/>
  <path class="cls-2" d="M152.81,295.2s17.61-46.04,14.35-50.09c0,0-1.7-1.83-4.3,6.65,0,0-11.74,40.7-12.65,41.74,0,0,.91,2.48,2.61,1.7Z"/>
  <path class="cls-2" d="M170.87,293.5s-8.74-7.7-6.2-22.43c0,0,5.22-17.67,16.7-18.85,0,0,12.39.52,9.46-1.7,0,0-2.02-4.04-11.41-2.09,0,0-14.74,1.83-19.17,27.2,0,0-.91,10.48,5.54,19.72,0,0,5.67.24,5.09-1.85Z"/>
  <path class="cls-4" d="M46.63,191.12s-5.74-23.22-24-20.48c0,0-4.17,1.57-5.74,6.65,0,0-10.17-1.83-7.43,13.83,0,0,1.96,16.57,14.22,22.83,0,0,11.22,4.96,18.13-3.91,0,0,8.74-12.65,4.83-18.91Z"/>
  <path class="cls-6" d="M240.07,205.1s17.48-11.09,20.61-12c0,0,.91,23.87.78,26.61,0,0,16.83-7.04,22.57-10.3,0,0,.04,27.9,0,28.17,0,0,22.37-2.67,22.7-25.96,0,0,3-46.39,7.7-61.08,0,0,1.8-6.23,1.77-9.85,0-.89-.75-1.59-1.64-1.56-9.84.38-66.97,5.21-74.47,65.97Z"/>
</svg>