<?xml version="1.0" encoding="UTF-8"?>
<svg id="pata" xmlns="http://www.w3.org/2000/svg" viewBox="0 0 366.2 393.69">
  <defs>
    <style>
      .cls-1, .cls-2 {
        fill: #8cc3eb;
      }

      .cls-1, .cls-3 {
        stroke-width: 3px;
      }

      .cls-1, .cls-3, .cls-4, .cls-5 {
        stroke: #1d1d1b;
        stroke-miterlimit: 10;
      }

      .cls-6, .cls-4, .cls-5 {
        fill: #1d1d1b;
      }

      .cls-7, .cls-3 {
        fill: #fff;
      }

      .cls-8 {
        fill: #e7352c;
      }

      .cls-4 {
        stroke-width: 2px;
      }
    </style>
  </defs>
  <path class="cls-1" d="M46.71,358.47s13.18-38.58,42.35-55.52c0,0-57.88-19.45-78.58-57.48,0,0,3.76-2.43,14.12,0,0,0-21.17-17.08-22.59-19.8,0,0,24-13.06,26.82-46,0,0,2.82-19.76,8-25.41,0,0-32.47-64.94,12.7-152.46,0,0,60.23,18.35,88.93,79.52,0,0,60.23-11.29,96.46,5.65,0,0,46.58-63.05,104.93-76.23,0,0,36.7,73.88-6.59,154.81,0,0,4.71,56.47,30.59,72.46,0,0-16.94,18.35-24,18.82,0,0,13.26.32,15.47,1.76,0,0-35.7,39.17-76.64,50.47,0,0,26.82,15.53,32.47,49.41H46.71Z"/>
  <path class="cls-3" d="M92.74,98.54S76.86,27.6,48.27,6.43c0,0-41.01,57.67-12.14,146.96.26.8,1.09.76,1.42-.02,4.36-10.28,17.62-37.13,33.66-42.83,0,0-12-15.88-6-23.29,0,0,7.76-3.88,27.53,11.29Z"/>
  <path class="cls-3" d="M286.13,109.12s6.71-47.29,54.35-95.99c0,0,34.85,61.76-7.15,152.1,0,0-9.44-28.02-28.15-43.05,0,0,15.88-14.82,9.88-21.88,0,0-12-4.59-28.94,8.82Z"/>
  <path class="cls-3" d="M5.81,229.39c-.06-.04-.48-.18-.41-.16,5.08,1.68,57.31,18.25,96.87,6.63,0,0,47.05-14.82,79.76-14.35,0,0,32.23-.24,66.11,15.76,0,0,59.88,15.89,113.8,1.16.2-.06.36.18.21.34-2.39,2.63-9.89,13.46-22.3,18.58-.54.22-.4,1.02.18,1.02,4.78-.05,15.17-.37,12.96,1.95-1.25-1.02-35.27,48.28-119.21,58.83,0,0,2.58-.34,6.84-.96,0,0,6.23,23.78,3.76,39.31h-125.04s1.05-31.16,5.99-40.69c0,0,4.32.78,9.17,1.17,0,0-73.98-5.16-122.98-70.68-.55-.73-.1-1.8.81-1.9,2.96-.32,8.4.02,11.89.94.41.11.7-.39.4-.69-3.09-3.1-11.67-11.49-18.81-16.25Z"/>
  <path class="cls-5" d="M179.56,240.58s2.91-8.03,6.35,0c0,0-.09,10.41,16.32,11.73,0,0,9,.78,14.82-7.28,0,0,1.06-2.16,3.88-1.01,0,0,2.56,1.5,0,4.76,0,0-3.44,7.15-10.94,8.38,0,0-4.5,32.11-26.03,32.47,0,0-14.38,2.12-23.47-12.18-9.09-14.29-7.15-21.97-7.15-21.97,0,0-11.38-5.73-11.73-12,0,0,1.85-4.32,5.12-.71,0,0,7.85,9.09,15.88,8.56,0,0,15.09-2.74,16.94-10.76Z"/>
  <path class="cls-8" d="M182.5,247.99s8.59,10.88,20.23,9.7c0,0-1.12,26.12-19.35,26.82,0,0-19.82,4-23.17-27.94,0,0,12.29,1.35,22.29-8.59Z"/>
  <path class="cls-4" d="M182.26,241.46s-18.82-1.65-20.7-21.41c0,0,.82-10.47,30-7.41,0,0,15.41,3.29,12.59,11.18,0,0-1.18,14.7-21.88,17.65Z"/>
  <path class="cls-5" d="M84.18,208.29s-3.88-1.85-.53-10.5c0,0,10.41-23.47,36.97-17.73,0,0,21.44,6.97,20.65,29.38,0,0,.53,1.76-2.29,2.21,0,0-3.88,0-4.85-4.41,0,0-3.09-16.06-20.73-18.09,0,0-19.32-.97-24,17.73,0,0-1.24,2.65-5.21,1.41Z"/>
  <path class="cls-5" d="M228.26,215.82s-3.68-.76-1.88-8.03c0,0,5.85-22.7,27.47-22.53,0,0,23.73-1.24,30.88,23.38,0,0,1.41,4.97-1.18,7.18,0,0-5.94,2.44-6.44-3.26,0,0-3.06-16.79-22.29-17.59,0,0-19.94,1.15-21.62,16.59,0,0-.79,5.71-4.94,4.26Z"/>
  <path class="cls-6" d="M106.41,326.61s-.15,2.02-1.2,6.36c-1.05,4.34-2.99,15.5-4.79,24.48l-5.91.82s4.87-30.54,7.94-32.79c0,0,2.7-2.02,3.97,1.12Z"/>
  <path class="cls-6" d="M255.25,326.75s.88-3.47,3.59-2.12c0,0,4.23,1.88,7.59,32.23l-5.59,1.29s.06-15.38-5.59-31.41Z"/>
  <path class="cls-2" d="M49.43,351.73s-4.8,23.18-7.62,41.43h272.68s-2.51-39.22-4.78-41.43H49.43Z"/>
  <rect class="cls-7" x="118.58" y="350.32" width="125.41" height="42.88"/>
  <path class="cls-6" d="M119.12,344.56s-3.22,39.63-1.79,48.63h2.47l1.36-48.68-2.04.05Z"/>
  <path class="cls-6" d="M243.98,350.63s-1.49,38.46-2.08,42.56h2.82s1.81-37.18,1.22-42.56h-1.96Z"/>
  <path class="cls-6" d="M307.72,351.3s2.64,29.85,2.46,41.89h4.76s-2.96-40.23-3.54-41.79l-3.69-.1Z"/>
  <path class="cls-6" d="M48.19,350.07s-7.28,39.08-7.81,43.12h4.19s7.28-43.03,7.54-43.12h-3.93Z"/>
  <path class="cls-6" d="M260.41,350.78s.75,14.23,0,19.38h5.75s-.06-19.09-.49-19.53l-5.26.15Z"/>
  <path class="cls-6" d="M95.81,350.68s-2.89,13.31-3.68,19.47h6.71s2.74-18.94,2.91-19.47h-5.93Z"/>
  <path class="cls-5" d="M260.58,365.19s2.59-40.94,62.11-29.64c0,0,26.12,10.59,25.17,29.64,0,0,4.5,28-43.63,28,0,0-46.95,1.18-43.66-28Z"/>
  <path class="cls-5" d="M15.67,365.19s2.59-40.94,62.11-29.64c0,0,26.12,10.59,25.17,29.64,0,0,4.5,28-43.63,28,0,0-46.95,1.18-43.66-28Z"/>
</svg>