<?xml version="1.0" encoding="UTF-8"?>
<svg id="Capa_1" data-name="Capa 1" xmlns="http://www.w3.org/2000/svg" viewBox="0 0 289.18 334.99">
  <defs>
    <style>
      .cls-1 {
        stroke-width: .75px;
      }

      .cls-1, .cls-2, .cls-3, .cls-4 {
        fill: #1d1d1b;
      }

      .cls-1, .cls-3, .cls-5, .cls-6, .cls-7, .cls-4 {
        stroke: #1d1d1b;
        stroke-miterlimit: 10;
      }

      .cls-3 {
        stroke-width: .5px;
      }

      .cls-8, .cls-7 {
        fill: #8cc3eb;
      }

      .cls-5 {
        stroke-width: 2px;
      }

      .cls-5, .cls-6 {
        fill: #fff;
      }

      .cls-6, .cls-7 {
        stroke-width: 4px;
      }

      .cls-9 {
        fill: #e6332a;
      }
    </style>
  </defs>
  <g>
    <path class="cls-7" d="M287.18,196.07s-50.76-3.81-55.07-6.68c-.56-.37-.73-1.11-.4-1.69,16.7-29.67,21.38-49.88,22.52-56.14.17-.94-.7-1.7-1.62-1.45-2.84.79-4.97.9-6.37.82-.96-.05-1.5-1.13-.99-1.95,12.74-20.63,4.14-19.4,4.14-19.4-19.5,3.83-42.94-18.29-45.52-20.8-.15-.15-.26-.33-.33-.54C185.77,29.51,146.35,5.75,139.82,2.16c-.54-.29-1.2-.17-1.6.3-28.72,34.21-23.25,82.34-22.24,89.52.08.55-.21,1.07-.71,1.32-24.17,11.69-37.99,30.84-40.64,34.76-.29.43-.82.63-1.33.52-38.48-8.43-65.83,6.72-70.68,9.67-.47.28-.7.83-.59,1.36,9.07,42.66,58.41,68.93,63.58,71.58.29.15.5.39.61.7,5.73,15.65,12.83,28.47,13.6,29.84.05.08.09.16.11.25.67,2.37-.56,15.55-1.03,20.23-.09.86.7,1.58,1.54,1.37,4.43-1.07,11.19-4.98,14.54-7.02.98-.6,2.19.29,1.91,1.41-.68,2.68-2.29,6.64-3.14,8.67-.3.72.1,1.53.85,1.73,20.1,5.41,64.56-14.04,71.16-17.01.57-.25,1.22-.06,1.58.44,2.77,3.91,2.83,14.95,2.75,19.06-.02.9.88,1.52,1.73,1.22,1.85-.67,4.08-2.15,5.56-3.23.72-.52,1.69-.15,1.96.7,1.85,5.79,11.61,11.39,16.95,14.08,1.08.54,2.23-.58,1.73-1.68-.02-.04-.03-.07-.05-.11-.53-1.18.81-2.31,1.87-1.58,32.8,22.43,77.29.09,87.34-5.5v-78.68Z"/>
    <path class="cls-6" d="M140.1,3.68c9.63,5.47,51.21,31.74,62.34,83.38.02.08,3.62,4.92-.13.11-1.46-1.87-23.64-11.44-31.09-8.07-.05.02-.11,0-.12-.05-.35-1.31-4.21-15.35-11.91-19.61-.03-.02-.07-.02-.1,0-.62.48-7.24,5.84-8.22,14.99,0,.09-.12.12-.17.04-1.9-3.36-22.3-40.56-13.33-69.69.36-1.15,1.68-1.69,2.73-1.1Z"/>
    <path class="cls-2" d="M98.35,228.31s-10.86-11.27.39-26.4c0,0,14.2-14.76,28.13.83,0,0,2.74,4.59-4.87,1.89,0,0-9.89-5.44-18.42,4.47,0,0-5.29,9-3.11,16.37,0,0,1,4.58-2.13,2.84Z"/>
    <path class="cls-6" d="M60.51,206.66c-4.7-4.43-37.62-13.98-56.81-66,0,0,23.61-2.22,52.2,19,0,0-8.12,3.69-9.96,7.01,0,0,.18,4.98,11.44,7.75,0,0-3.59,14.28,2.29,29.42l.84,2.82Z"/>
    <path class="cls-1" d="M165.93,170.18c-1.11-2.14-8.38-17.51,3.18-30.09,0,0,15.49-13.47,31.36,1.1,0,0,1.81,5.15-4.73,2.01,0,0-10.28-5.63-21.22,3.86,0,0-7.27,7.62-6.06,20.18,0,0,1.38,3.56-2.1,3.23-.18-.02-.34-.13-.42-.29Z"/>
    <path class="cls-5" d="M143.96,193.02s28.62-20.71,46.6-25.08c.04-.01.08-.02.11-.05,1.52-.9,37.16-23.42,57.87-55.58.55-.86,1.41.6,1.76,1.56,1.04,2.87,1.24,8.94-8.32,18.28-.31.3-.08.81.34.79,2.09-.11,6.34-.38,8.77-.81.28-.05.53.16.53.44.11,4.45-.46,35.87-36.19,74.17,0,0,11.02-11.91,14.4-15.76.3-.34.98.26.91.72-1.24,8.41-7.28,48.21,5.26,68.45,0,0,10.59,20.18,15.34,26.83.19.26.05.63-.26.71-5.04,1.19-37.55,8.03-54.9-9.15-.35-.35-.93.02-.75.48.46,1.17,1.02,2.55,1.45,3.5.17.37-.19.76-.57.62-3.37-1.19-13.94-5.67-17.77-16.18-.08-.23-.33-.36-.56-.28-.91.3-3.69,2.34-6.06,4.51-.27.25-.91-.58-.97-.94-.47-3.2-1.45-14.63-3.53-18.17-.28-.48-.18-1.09.22-1.48,1.2-1.19,4.25-3.75,11.46-8.06,0,0-56.77,32.17-84.26,23.5-.26-.08-.39-.38-.28-.63.71-1.57,2.87-6.63,2.09-8.52-.09-.22-.35-.32-.57-.25-1.4.48-10.34,3.81-14.47,5.39-.51.2-1.73-1.78-1.27-2.08,9.64-6.4,38.12-22.83,43.82-29.05.05-.05.08-.11.1-.17.59-1.9,9.75-30.98,19.7-37.72Z"/>
    <path class="cls-3" d="M150.47,200.58s4.93,4.75,5.97,5.1c0,0,5.88.16,9.68-4.52,0,0,5.12-5.44,4.17-9.66,0,0,1.52-1.8,2.6,1.31,0,0-.11,3.52-.47,4.3,0,0-.85,2.32,1.05,4.53,0,0,3.23,9.22-.18,14.02,0,0-4.22,7.13-12.5,4.38,0,0-5.51-1.87-6.85-4.03,0,0-4.91,4.77-9.61,3.34,0,0-2.33-.62-2.03-2.03,0,0,.6-1.52,3.18-1.25,0,0,4.5-.48,6.46-3.55,0,0,2.35-3.5,1.13-4.68,0,0-4.68-4.96-5.17-5.3s1.47-2.99,2.56-1.96Z"/>
    <path class="cls-9" d="M156.61,208.73s9.43-1.78,13.28-6.96c0,0,4.08,7.77-.05,13.1,0,0-5.88,7.26-14.25-1.11,0,0,1.37-2.77,1.01-5.03Z"/>
    <path class="cls-1" d="M149.84,202.62s-12.31,3.81-13.59-5.15c0,0-.31-4.95,8.23-9.41,8.54-4.46,8.23,5.19,8.23,5.19,0,0,1.42,5.29-2.87,9.37Z"/>
  </g>
  <polygon class="cls-8" points="288.75 273.36 285.06 273.59 284.34 197.87 288.75 198.23 288.75 273.36"/>
  <path class="cls-4" d="M259.18,244.58s-40.94-2.59-29.64-62.11c0,0,10.59-26.12,29.64-25.17,0,0,28-4.5,28,43.63,0,0,1.18,46.95-28,43.66Z"/>
  <path class="cls-4" d="M259.18,334.32s-40.94-2.59-29.64-62.11c0,0,10.59-26.12,29.64-25.17,0,0,28-4.5,28,43.63,0,0,1.18,46.95-28,43.66Z"/>
</svg>